<svg xmlns="http://www.w3.org/2000/svg" viewBox="0 0 980 420" role="img" aria-label="W4U logo">
  <defs>
    <linearGradient id="g" x1="0" y1="0" x2="1" y2="1"><stop offset="0" stop-color="#73d318"/><stop offset="1" stop-color="#46b91f"/></linearGradient>
    <linearGradient id="b" x1="0" y1="0" x2="1" y2="1"><stop offset="0" stop-color="#0b72ff"/><stop offset="1" stop-color="#064eea"/></linearGradient>
    <linearGradient id="c" x1="0" y1="0" x2="1" y2="1"><stop offset="0" stop-color="#00d6ff"/><stop offset="1" stop-color="#09b8df"/></linearGradient>
  </defs>
  <path d="M78 70v177c0 61 42 104 105 104 37 0 68-16 88-44 20 28 52 44 90 44 63 0 105-43 105-104V70" fill="none" stroke="url(#g)" stroke-width="72" stroke-linecap="round" stroke-linejoin="round"/>
  <rect x="520" y="45" width="225" height="225" rx="46" fill="url(#b)"/>
  <path d="M648 88 566 191h116M682 92v162" fill="none" stroke="#fff" stroke-width="48" stroke-linecap="round" stroke-linejoin="round"/>
  <path d="M810 70v177c0 61 42 104 105 104s105-43 105-104V70" fill="none" stroke="url(#c)" stroke-width="72" stroke-linecap="round" stroke-linejoin="round"/>
</svg>
