<svg xmlns="http://www.w3.org/2000/svg" viewBox="0 0 1300 620" role="img" aria-label="Web4U Media logo">
  <defs>
    <linearGradient id="webgreen" x1="0" y1="0" x2="1" y2="1"><stop offset="0" stop-color="#73d318"/><stop offset="1" stop-color="#48b91f"/></linearGradient>
    <linearGradient id="blue" x1="0" y1="0" x2="1" y2="1"><stop offset="0" stop-color="#0b72ff"/><stop offset="1" stop-color="#064eea"/></linearGradient>
    <linearGradient id="cyan" x1="0" y1="0" x2="1" y2="1"><stop offset="0" stop-color="#00d6ff"/><stop offset="1" stop-color="#07badf"/></linearGradient>
    <style>.stroke{fill:none;stroke-linecap:round;stroke-linejoin:round}.web{stroke:url(#webgreen);stroke-width:56}.navy{stroke:#062868;stroke-width:56}</style>
  </defs>
  <g transform="translate(52 54)">
    <path class="stroke web" d="M40 40v142c0 50 35 84 85 84 32 0 58-14 74-40 17 26 44 40 76 40 50 0 85-34 85-84V40"/>
    <path class="stroke web" d="M445 40h180M445 151h170M445 262h180"/>
    <path class="stroke web" d="M715 40h125c48 0 80 26 80 64 0 31-22 52-53 59 36 5 62 27 62 61 0 39-32 66-83 66H715M715 151h140M715 262h135"/>
    <rect x="970" y="18" width="185" height="185" rx="38" fill="url(#blue)"/>
    <path d="M1075 56 1008 139h92M1100 58v129" fill="none" stroke="#fff" stroke-width="38" stroke-linecap="round" stroke-linejoin="round"/>
    <path d="M1210 40v142c0 50 35 84 85 84s85-34 85-84V40" fill="none" stroke="url(#cyan)" stroke-width="56" stroke-linecap="round" stroke-linejoin="round" transform="translate(-80 0)"/>
  </g>
  <g transform="translate(80 390)">
    <path class="stroke navy" d="M30 150V55c0-38 27-65 65-65 30 0 52 16 64 41 12-25 35-41 65-41 38 0 65 27 65 65v95"/>
    <path class="stroke navy" d="M390 0h205M390 75h190M390 150h205"/>
    <path class="stroke navy" d="M690 0h145c58 0 100 42 100 75s-42 75-100 75H690V0z"/>
    <path class="stroke navy" d="M1030 0v150"/>
    <path class="stroke navy" d="M1125 150V55c0-38 28-65 70-65h40c42 0 70 27 70 65v95M1175 85h88"/>
  </g>
</svg>
